<?xml version="1.0" encoding="utf-8"?>
<!-- Generator: Adobe Illustrator 27.8.1, SVG Export Plug-In . SVG Version: 6.00 Build 0)  -->
<svg version="1.1" id="Capa_1" xmlns="http://www.w3.org/2000/svg" xmlns:xlink="http://www.w3.org/1999/xlink" x="0px" y="0px"
	 viewBox="0 0 512 512" style="enable-background:new 0 0 512 512;" xml:space="preserve">
<style type="text/css">
	.st0{fill:#DC463C;}
</style>
<g>
	<path class="st0" d="M322.5,394.5h45.3c20.7,0,37.6-16.9,37.6-37.6l0.1-112.2c0-17-8.1-32.1-21.5-41.3
		c-0.3-1.1-30.5-58.9-30.5-58.9c-8.9-16.9-25.5-27-44.4-27H189.9c-18.9,0-35.5,10.1-44.4,27c-4.8,9.2-31.3,59.5-31.3,59.5
		c-13.6,9.2-21.7,24.2-21.7,41.4l0,111.5c0,20.7,16.9,37.6,37.6,37.6h45.3c20.7,0,37.6-16.9,37.6-37.6v-22.6h72v22.6
		C284.9,377.6,301.8,394.5,322.5,394.5z M375.3,356.9c0,4.1-3.5,7.6-7.6,7.6h-45.3c-4.1,0-7.6-3.5-7.6-7.6v-22.6h40.3
		c7.2,0,14-1.5,20.1-4.2L375.3,356.9L375.3,356.9z M172.1,158.5c3.7-7.1,10.1-11,17.8-11H309c7.8,0,14.1,3.9,17.8,11
		c0,0,15.9,30.2,16.6,31.5c-38.6-7.6-84.7-9.4-94.4-9.4c-34.1,0-66.9,3.2-93.3,8.9C155.7,189.6,167.2,167.6,172.1,158.5z
		 M182.9,356.9c0,4.1-3.5,7.6-7.6,7.6h-45.3c-4.1,0-7.6-3.5-7.6-7.6V330c6.3,2.8,13.1,4.3,20.2,4.3h40.2L182.9,356.9L182.9,356.9z
		 M142.7,304.3c-5.4,0-10.5-2.1-14.3-5.9c-3.8-3.8-5.9-8.9-5.9-14.2l0-38.7c0-8.6,4.8-15.6,12.7-18.7c25.2-10,67.7-16,113.8-16
		c17.8,0,80.2,3.7,112.9,15c8.4,2.9,13.6,10.2,13.6,19l-0.1,41.4c-1,10.2-9.6,18.2-20.1,18.2L142.7,304.3L142.7,304.3z"/>
	<path class="st0" d="M167.9,244.3c-8.3,0-15,6.7-15,15c0,8.3,6.7,15,15,15s15-6.7,15-15C182.9,251,176.2,244.3,167.9,244.3z"/>
	<path class="st0" d="M329.9,244.3c-8.3,0-15,6.7-15,15c0,8.3,6.7,15,15,15s15-6.7,15-15C344.9,251,338.2,244.3,329.9,244.3z"/>
	<path class="st0" d="M269.9,244.3h-42c-8.3,0-15,6.7-15,15c0,8.3,6.7,15,15,15h42c8.3,0,15-6.7,15-15S278.2,244.3,269.9,244.3z"/>
	<path class="st0" d="M34.3,201.6c1.9,0,3.9-0.4,5.8-1.2l47.2-19.8c7.6-3.2,11.2-12,8-19.6c-3.2-7.6-12-11.2-19.6-8l-13.4,5.6
		C96.3,81,173.4,30,259.1,30c98,0,183.6,66.3,208.2,161.2c1.7,6.8,7.8,11.2,14.5,11.2c1.2,0,2.5-0.2,3.8-0.5
		c8-2.1,12.8-10.3,10.8-18.3C468.4,75.5,370.8,0,259.1,0C160.9,0,72.7,58.7,34.2,147.9l-5.1-12c-3.2-7.6-12-11.2-19.7-8
		c-7.6,3.2-11.2,12-8,19.7l18.9,44.9C22.9,198.2,28.4,201.6,34.3,201.6z"/>
	<path class="st0" d="M510.5,364.4l-18.9-44.9c-2.4-5.7-8-9.2-13.8-9.2c-1.9,0-3.9,0.4-5.8,1.2l-47.2,19.8c-7.6,3.2-11.2,12-8,19.6
		c3.2,7.6,12,11.2,19.6,8l13.4-5.6C415.7,431,338.6,482,252.9,482c-98,0-183.6-66.3-208.2-161.2c-1.7-6.8-7.8-11.2-14.5-11.2
		c-1.2,0-2.5,0.2-3.8,0.5c-8,2.1-12.8,10.3-10.8,18.3C43.6,436.5,141.2,512,252.9,512c98.2,0,186.5-58.7,224.9-147.9l5.1,12
		c3.2,7.6,12,11.2,19.7,8C510.1,380.8,513.7,372,510.5,364.4z"/>
</g>
</svg>
