<?xml version="1.0" encoding="utf-8"?>
<!-- Generator: Adobe Illustrator 27.8.1, SVG Export Plug-In . SVG Version: 6.00 Build 0)  -->
<svg version="1.1" id="Capa_1" xmlns="http://www.w3.org/2000/svg" xmlns:xlink="http://www.w3.org/1999/xlink" x="0px" y="0px"
	 viewBox="0 0 512 373" style="enable-background:new 0 0 512 373;" xml:space="preserve">
<style type="text/css">
	.st0{fill:#DC463C;}
</style>
<g>
	<path class="st0" d="M76.5,158.4c-8.5,0-15.4,6.9-15.4,15.4s6.9,15.4,15.4,15.4s15.4-6.9,15.4-15.4C91.9,165.3,85,158.4,76.5,158.4
		z"/>
	<path class="st0" d="M371,88c-2.5,0-5,0.1-7.5,0.2c-9.2-17.6-26.3-50.3-26.3-50.3C326,16.7,305.2,4,281.5,4H119.2
		C95.5,4,74.7,16.7,63.6,37.9c-6.6,12.5-43.1,80.5-46.7,87.4C6.2,136.6,0.1,151.9,0,168.8v104.9c0,21,17.1,38,38,38h46.2
		c21,0,38-17.1,38-38v-23.5h109.4C241.9,318,300.5,370,371,370c77.7,0,141-63.3,141-141S448.7,88,371,88z M90.2,51.9
		c6-11.3,16.6-17.9,29.1-17.9h162.2c12.5,0,23.1,6.5,29.1,17.9c0,0,14.2,27.1,21.8,41.5c-4.5,1.3-9,2.8-13.3,4.5
		c-49.2-9.5-106.2-11.8-118.5-11.8c-51.5,0-100.4,5.8-136.9,15.9C66.2,97.3,83.6,64.3,90.2,51.9z M92.2,273.7c0,4.4-3.7,8-8,8H38
		c-4.4,0-8-3.7-8-8v-32.2c9.4,5.7,20.1,8.8,31.2,8.8h31.1L92.2,273.7L92.2,273.7z M61.2,220.2c-8,0-15.6-3.2-21.5-9.1
		c-6.3-6.3-9.7-14.7-9.7-23.8v-18.5c0-14,7.4-25.5,19.8-30.6c33.5-13.8,89.9-22.1,150.7-22.1c13.3,0,45.5,1.6,78.7,5.9
		c-12.1,10.4-22.5,22.8-30.5,36.7H138c-8.3,0-15,6.7-15,15s6.7,15,15,15h97.9c-3,10.1-4.9,20.6-5.6,31.5H61.2L61.2,220.2z M371,340
		c-61.2,0-111-49.8-111-111s49.8-111,111-111s111,49.8,111,111S432.2,340,371,340z"/>
</g>
<g>
	<path class="st0" d="M421.1,294.1c-3.8,0-7.7-1.5-10.6-4.4l-50.1-50.1c-2.8-2.8-4.4-6.6-4.4-10.6v-70.8c0-8.3,6.7-15,15-15
		s15,6.7,15,15v64.6l45.7,45.7c5.9,5.9,5.9,15.4,0,21.2C428.8,292.7,425,294.1,421.1,294.1z"/>
</g>
</svg>
