<?xml version="1.0" encoding="utf-8"?>
<!-- Generator: Adobe Illustrator 27.8.1, SVG Export Plug-In . SVG Version: 6.00 Build 0)  -->
<svg version="1.1" id="Capa_1" xmlns="http://www.w3.org/2000/svg" xmlns:xlink="http://www.w3.org/1999/xlink" x="0px" y="0px"
	 viewBox="0 0 456 456" style="enable-background:new 0 0 456 456;" xml:space="preserve">
<style type="text/css">
	.st0{fill:#DC463C;}
</style>
<g>
	<g>
		<path class="st0" d="M407.5,274.8l-7.5-8.2l-27.2-63.3c-5.6-13-18.3-21.3-32.4-21.3H234.9V77.3c-0.1-2.8-1.3-5.4-3.3-7.3
			L160.7,2.9c-1.9-1.8-4.4-2.8-7-2.9H64.5C47.5,0,34,14.2,34,31.1v181.5c0,16.7,13.5,30.3,30.2,30.4c0.1,0,0.2,0,0.3,0h26.2
			l-9.5,22.3l-11,10.4c-10.4,9-16.3,22-16.2,35.8V421c0,19.1,15.2,35,34.3,35h20.5c19.3-0.2,34.9-15.7,35.1-35v-13h188v13
			c0.1,19.3,15.7,34.9,35,35h20.5c19.1,0,34.5-15.9,34.5-35V308.7C422,295.9,416.8,283.7,407.5,274.8z M234.9,212.6V202h105.5
			c6.1-0.1,11.6,3.4,14,9l21.6,50h-12.3c-5.5-30.2-34.5-50.2-64.7-44.7c-22.7,4.2-40.5,22-44.7,44.7H104.8l7.7-18h91.3
			C220.8,243,234.9,229.6,234.9,212.6z M343.1,261h-68.4c4.3-14,18-25.6,34.2-25.6S338.9,247,343.1,261z M161.9,32.2l40,37.8h-39.4
			c-0.2,0-0.6-0.5-0.6-0.7L161.9,32.2L161.9,32.2z M64.4,223c-5.7,0.1-10.4-4.4-10.5-10c0-0.2,0-0.3,0-0.4V31.1
			c0-5.9,4.6-11.1,10.5-11.1h77.5v49.3c0.1,11.4,9.3,20.6,20.6,20.7H215v122.6c0,5.9-5.2,10.4-11.2,10.4H64.4z M123.9,421
			c-0.2,8.3-6.9,14.9-15.1,15H88.3c-8.1,0-14.3-7-14.3-15v-16.7c4.4,2.4,9.3,3.6,14.3,3.7h35.6V421z M402,421c0,8-6.4,15-14.5,15
			H367c-8.2-0.2-14.9-6.8-15-15v-13h35.5c5-0.1,10-1.4,14.5-3.7V421z M402,372.8c0,8.1-6.4,15.1-14.5,15.1H88.2
			c-8.1,0-14.3-7-14.3-15.1v-61.3c-0.1-7.9,3.4-15.4,9.4-20.6c0.1-0.1,0.1-0.4,0.3-0.5l9.9-9.4h293l6.8,7.4c0.1,0.2,0.2,0.4,0.3,0.5
			c5.4,5.2,8.4,12.3,8.4,19.7L402,372.8L402,372.8z"/>
	</g>
</g>
<g>
	<g>
		<path class="st0" d="M158.9,308h-59c-5.5,0-10,4.5-10,10v40c0,5.5,4.5,10,10,10h59c5.5,0,10-4.5,10-10v-40
			C168.9,312.5,164.4,308,158.9,308z M148.9,348h-39v-20h39V348z"/>
	</g>
</g>
<g>
	<g>
		<path class="st0" d="M376,308h-59c-5.5,0-10,4.5-10,10v40c0,5.5,4.5,10,10,10h59c5.5,0,10-4.5,10-10v-40
			C386,312.5,381.5,308,376,308z M366,348h-39v-20h39V348z"/>
	</g>
</g>
<g>
	<g>
		<path class="st0" d="M275.5,347h-75.2c-5.5,0-10,4.5-10,10s4.5,10,10,10h75.2c5.5,0,10-4.5,10-10S281,347,275.5,347z"/>
	</g>
</g>
<g>
	<g>
		<path class="st0" d="M275.5,316h-75.2c-5.5,0-10,4.5-10,10s4.5,10,10,10h75.2c5.5,0,10-4.5,10-10S281,316,275.5,316z"/>
	</g>
</g>
<g>
	<g>
		<path class="st0" d="M181.1,148H84.2c-5.5,0-10,4.5-10,10s4.5,10,10,10h96.8c5.5,0,10-4.5,10-10S186.6,148,181.1,148z"/>
	</g>
</g>
<g>
	<g>
		<path class="st0" d="M125.4,112H84.2c-5.5,0-10,4.5-10,10s4.5,10,10,10h41.2c5.5,0,10-4.5,10-10S130.9,112,125.4,112z"/>
	</g>
</g>
<g>
	<g>
		<path class="st0" d="M181.1,184H84.2c-5.5,0-10,4.5-10,10s4.5,10,10,10h96.8c5.5,0,10-4.5,10-10S186.6,184,181.1,184z"/>
	</g>
</g>
</svg>
