<?xml version="1.0" encoding="utf-8"?>
<!-- Generator: Adobe Illustrator 27.8.1, SVG Export Plug-In . SVG Version: 6.00 Build 0)  -->
<svg version="1.1" id="Слой_1" xmlns="http://www.w3.org/2000/svg" xmlns:xlink="http://www.w3.org/1999/xlink" x="0px" y="0px"
	 viewBox="0 0 512 512" style="enable-background:new 0 0 512 512;" xml:space="preserve">
<style type="text/css">
	.st0{fill:#DC463C;}
</style>
<path class="st0" d="M256,0C148.1,0,60.2,87.8,60.2,195.8v180.7c0,24.9,20.3,45.2,45.2,45.2c24.9,0,45.2-20.3,45.2-45.2V225.9
	c0-24.9-20.3-45.2-45.2-45.2c-5.1,0-9.9,1-14.4,2.6c6.4-85.5,77.9-153.2,165-153.2c87.1,0,158.5,67.6,165,153
	c-4.5-1.6-9.4-2.5-14.4-2.5c-24.9,0-45.2,20.3-45.2,45.2v150.6c0,24.9,20.3,45.2,45.2,45.2c5.3,0,10.3-1.1,15.1-2.8v17.8
	c0,8.3-6.8,15.1-15.1,15.1H298.4c-6.2-17.5-22.8-30.1-42.4-30.1c-24.9,0-45.2,20.3-45.2,45.2S231.1,512,256,512
	c19.6,0,36.2-12.6,42.4-30.1h108.2c24.9,0,45.2-20.3,45.2-45.2c0-90.6,0-150.3,0-240.9C451.8,87.8,363.9,0,256,0z"/>
<path class="st0" d="M481.9,213.6v175.2c17.5-6.2,30.1-22.8,30.1-42.4V256C512,236.4,499.4,219.8,481.9,213.6z"/>
<path class="st0" d="M0,256v90.4c0,19.6,12.6,36.2,30.1,42.4V213.6C12.6,219.8,0,236.4,0,256z"/>
</svg>
