<?xml version="1.0" encoding="utf-8"?>
<!-- Generator: Adobe Illustrator 26.0.2, SVG Export Plug-In . SVG Version: 6.00 Build 0)  -->
<svg version="1.1" id="Capa_1" xmlns="http://www.w3.org/2000/svg" xmlns:xlink="http://www.w3.org/1999/xlink" x="0px" y="0px"
	 viewBox="0 0 511.4 417.9" style="enable-background:new 0 0 511.4 417.9;" xml:space="preserve">
<style type="text/css">
	.st0{fill:#DC463C;}
</style>
<g>
	<path class="st0" d="M152,175.2h100v30H152V175.2z"/>
	<path class="st0" d="M404,185.4c2.2-41.2-26-78.5-66.4-87.4L317.1,2.2H86.9L66.4,98C27.8,106.6-0.1,140.9,0,180.5v96.4h30v64.3h90
		v-64.3h164.4C269.1,346.9,325.1,416,397,415.2C545.3,409.8,551.2,199.6,404,185.4L404,185.4z M292.9,32.2l13.5,63H97.7l13.5-63
		H292.9z M90,311.2H60v-34.3h30V311.2z M30,246.8v-41.7h86v-30H30.3c2.2-22.3,18-41.3,40.1-47.2l10.7-2.8h241.9l10.7,2.8
		c22,5.8,37.9,24.8,40.1,47.2H288v30h44.3c-15.5,10.6-28.3,24.9-37.1,41.7H30z M397,385.2c-46.9,0-85-38.1-85-85
		c4.7-112.8,165.3-112.7,170,0C482,347.1,443.9,385.2,397,385.2z"/>
	<path class="st0" d="M384,304.2l-13.9-13.9l-21.2,21.2l35.1,35.1l61.1-61.1l-21.2-21.2L384,304.2z"/>
</g>
</svg>
